<?xml version="1.0" encoding="UTF-8"?>
<svg width="512px" height="512px" viewBox="0 0 512 512" version="1.1" xmlns="http://www.w3.org/2000/svg" xmlns:xlink="http://www.w3.org/1999/xlink">
    <title>Logo</title>
    <g id="Logo" stroke="none" stroke-width="1" fill="none" fill-rule="evenodd">
        <path d="M247.932773,352 L247.932773,299.648536 L134.05042,299.648536 C129.210084,299.648536 125.086835,297.95258 121.680672,294.560669 C118.27451,291.168759 116.571429,287.062762 116.571429,282.242678 L116.571429,229.891213 C116.571429,225.07113 118.27451,220.965132 121.680672,217.573222 C125.086835,214.09205 129.210084,212.351464 134.05042,212.351464 L247.932773,212.351464 L247.932773,160 L125.310924,160 C108.369748,160 93.9383754,165.980474 82.0168067,177.941423 C70.0056022,189.902371 64,204.317992 64,221.188285 L64,290.945607 C64,307.8159 70.0056022,322.18689 82.0168067,334.058577 C93.9383754,346.019526 108.369748,352 125.310924,352 L247.932773,352 Z M316.638655,352 L316.638655,290.945607 L342.453782,290.945607 L384.403361,352 L448,352 L404.302521,288.401674 C417.120448,284.563459 427.563025,277.333333 435.630252,266.711297 C443.876751,255.821478 448,243.548117 448,229.891213 L448,221.188285 C448,204.317992 442.039216,189.902371 430.117647,177.941423 C418.106443,165.980474 403.630252,160 386.689076,160 L264.067227,160 L264.067227,352 L316.638655,352 Z M382.386555,238.594142 L316.638655,238.594142 L316.638655,212.351464 L382.386555,212.351464 C385.971989,212.351464 389.064426,213.645746 391.663866,216.23431 C394.173669,218.822873 395.428571,221.902371 395.428571,225.472803 C395.428571,229.132497 394.173669,232.211994 391.663866,234.711297 C389.064426,237.299861 385.971989,238.594142 382.386555,238.594142 Z" id="Combined-Shape" fill="#000000" fill-rule="nonzero"></path>
    </g>
</svg>