<svg xmlns="http://www.w3.org/2000/svg" width="256" height="96" viewBox="0 0 256 96">
  <g fill="none" fill-rule="evenodd">
    <path fill="#000" fill-rule="nonzero" d="M17.1715481,57 L17.1715481,52.0920502 L6.53974895,52.0920502 C6.08786611,52.0920502 5.70292887,51.9330544 5.38493724,51.6150628 C5.06694561,51.2970711 4.90794979,50.9121339 4.90794979,50.460251 L4.90794979,45.5523013 C4.90794979,45.1004184 5.06694561,44.7154812 5.38493724,44.3974895 C5.70292887,44.0711297 6.08786611,43.9079498 6.53974895,43.9079498 L17.1715481,43.9079498 L17.1715481,39 L5.72384937,39 C4.14225941,39 2.79497908,39.5606695 1.68200837,40.6820084 C0.560669456,41.8033473 0,43.1548117 0,44.7364017 L0,51.2761506 C0,52.8577406 0.560669456,54.2050209 1.68200837,55.3179916 C2.79497908,56.4393305 4.14225941,57 5.72384937,57 L17.1715481,57 Z M32.2677824,57 C33.8493724,57 35.2008368,56.4393305 36.3221757,55.3179916 C37.4351464,54.2050209 37.9916318,52.8577406 37.9916318,51.2761506 L37.9916318,44.7364017 C37.9916318,43.1548117 37.4351464,41.8033473 36.3221757,40.6820084 C35.2008368,39.5606695 33.8493724,39 32.2677824,39 L26.5439331,39 C24.9623431,39 23.6150628,39.5606695 22.5020921,40.6820084 C21.3807531,41.8033473 20.8200837,43.1548117 20.8200837,44.7364017 L20.8200837,51.2761506 C20.8200837,52.8577406 21.3807531,54.2050209 22.5020921,55.3179916 C23.6150628,56.4393305 24.9623431,57 26.5439331,57 L32.2677824,57 Z M31.4518828,52.0920502 L27.3598326,52.0920502 C26.9079498,52.0920502 26.5230126,51.9330544 26.2050209,51.6150628 C25.8870293,51.2970711 25.7280335,50.9121339 25.7280335,50.460251 L25.7280335,45.5523013 C25.7280335,45.1004184 25.8870293,44.7154812 26.2050209,44.3974895 C26.5230126,44.0711297 26.9079498,43.9079498 27.3598326,43.9079498 L31.4518828,43.9079498 C31.9037657,43.9079498 32.2887029,44.0711297 32.6066946,44.3974895 C32.9246862,44.7154812 33.083682,45.1004184 33.083682,45.5523013 L33.083682,50.460251 C33.083682,50.9121339 32.9246862,51.2970711 32.6066946,51.6150628 C32.2887029,51.9330544 31.9037657,52.0920502 31.4518828,52.0920502 Z M46.5481172,57 L46.5481172,39 L41.6401674,39 L41.6401674,57 L46.5481172,57 Z M55.1046025,57 L55.1046025,47.3598326 L62.9372385,57 L67.3682008,57 L67.3682008,39 L62.460251,39 L62.460251,48.6401674 L54.6401674,39 L50.1966527,39 L50.1966527,57 L55.1046025,57 Z M75.9246862,57 L75.9246862,51.2761506 L78.334728,51.2761506 L82.251046,57 L88.1882845,57 L84.1087866,51.0376569 C85.3054393,50.6778243 86.2803347,50 87.0334728,49.0041841 C87.8033473,47.9832636 88.1882845,46.832636 88.1882845,45.5523013 L88.1882845,44.7364017 C88.1882845,43.1548117 87.6317992,41.8033473 86.5188285,40.6820084 C85.3974895,39.5606695 84.0460251,39 82.4644351,39 L71.0167364,39 L71.0167364,57 L75.9246862,57 Z M82.0627615,46.3682008 L75.9246862,46.3682008 L75.9246862,43.9079498 L82.0627615,43.9079498 C82.3974895,43.9079498 82.6861925,44.0292887 82.9288703,44.2719665 C83.1631799,44.5146444 83.2803347,44.8033473 83.2803347,45.1380753 C83.2803347,45.4811715 83.1631799,45.7698745 82.9288703,46.0041841 C82.6861925,46.2468619 82.3974895,46.3682008 82.0627615,46.3682008 Z M103.284519,57 C104.866109,57 106.217573,56.4393305 107.338912,55.3179916 C108.451883,54.2050209 109.008368,52.8577406 109.008368,51.2761506 L109.008368,44.7364017 C109.008368,43.1548117 108.451883,41.8033473 107.338912,40.6820084 C106.217573,39.5606695 104.866109,39 103.284519,39 L97.5606695,39 C95.9790795,39 94.6317992,39.5606695 93.5188285,40.6820084 C92.3974895,41.8033473 91.8368201,43.1548117 91.8368201,44.7364017 L91.8368201,51.2761506 C91.8368201,52.8577406 92.3974895,54.2050209 93.5188285,55.3179916 C94.6317992,56.4393305 95.9790795,57 97.5606695,57 L103.284519,57 Z M102.468619,52.0920502 L98.376569,52.0920502 C97.9246862,52.0920502 97.539749,51.9330544 97.2217573,51.6150628 C96.9037657,51.2970711 96.7447699,50.9121339 96.7447699,50.460251 L96.7447699,45.5523013 C96.7447699,45.1004184 96.9037657,44.7154812 97.2217573,44.3974895 C97.539749,44.0711297 97.9246862,43.9079498 98.376569,43.9079498 L102.468619,43.9079498 C102.920502,43.9079498 103.305439,44.0711297 103.623431,44.3974895 C103.941423,44.7154812 104.100418,45.1004184 104.100418,45.5523013 L104.100418,50.460251 C104.100418,50.9121339 103.941423,51.2970711 103.623431,51.6150628 C103.305439,51.9330544 102.920502,52.0920502 102.468619,52.0920502 Z M129.828452,57 L129.828452,52.0920502 L119.196653,52.0920502 C118.74477,52.0920502 118.359833,51.9330544 118.041841,51.6150628 C117.723849,51.2970711 117.564854,50.9121339 117.564854,50.460251 L117.564854,45.5523013 C117.564854,45.1004184 117.723849,44.7154812 118.041841,44.3974895 C118.359833,44.0711297 118.74477,43.9079498 119.196653,43.9079498 L129.828452,43.9079498 L129.828452,39 L118.380753,39 C116.799163,39 115.451883,39.5606695 114.338912,40.6820084 C113.217573,41.8033473 112.656904,43.1548117 112.656904,44.7364017 L112.656904,51.2761506 C112.656904,52.8577406 113.217573,54.2050209 114.338912,55.3179916 C115.451883,56.4393305 116.799163,57 118.380753,57 L129.828452,57 Z M138.384937,57 L138.384937,50.8242678 L140.380753,49.2175732 L145.702929,57 L151.640167,57 L144.221757,46.1422594 L153.146444,39 L145.288703,39 L138.384937,44.5355649 L138.384937,39 L133.476987,39 L133.476987,57 L138.384937,57 Z M173.966527,57 L173.966527,52.0920502 L161.702929,52.0920502 L161.702929,50.460251 L172.334728,50.460251 L172.334728,45.5523013 L161.702929,45.5523013 L161.702929,43.9079498 L173.966527,43.9079498 L173.966527,39 L156.794979,39 L156.794979,57 L173.966527,57 Z M188.661088,57 L188.661088,43.9079498 L194.786611,43.9079498 L194.786611,39 L177.615063,39 L177.615063,43.9079498 L183.753138,43.9079498 L183.753138,57 L188.661088,57 Z"/>
    <rect width="42" height="16" x="204" y="40" stroke="#000" stroke-width="2" rx="1"/>
    <path fill="#000" fill-rule="nonzero" d="M212.087866,52 C212.790795,52 213.391446,51.7508136 213.889819,51.2524407 C214.384472,50.7577871 214.631799,50.1589958 214.631799,49.4560669 C214.631799,48.9242213 214.479312,48.4388656 214.174338,48 C214.479312,47.5648536 214.631799,47.0813575 214.631799,46.5495119 C214.631799,45.846583 214.384472,45.2459321 213.889819,44.7475593 C213.391446,44.2491864 212.790795,44 212.087866,44 L207,44 L207,52 L212.087866,52 Z M212.087866,46.9121339 L209.181311,46.9121339 L209.181311,46.181311 L212.087866,46.181311 C212.188285,46.181311 212.273826,46.218503 212.344491,46.292887 C212.415156,46.3635518 212.450488,46.4490934 212.450488,46.5495119 C212.450488,46.6499303 212.415156,46.7354719 212.344491,46.8061367 C212.273826,46.8768015 212.188285,46.9121339 212.087866,46.9121339 Z M212.087866,49.818689 L209.181311,49.818689 L209.181311,49.0934449 L212.087866,49.0934449 C212.188285,49.0934449 212.273826,49.1287773 212.344491,49.1994421 C212.415156,49.2701069 212.450488,49.3556485 212.450488,49.4560669 C212.450488,49.5564854 212.415156,49.642027 212.344491,49.7126918 C212.273826,49.7833566 212.188285,49.818689 212.087866,49.818689 Z M223.88517,52 L223.88517,49.818689 L218.434682,49.818689 L218.434682,49.0934449 L223.159926,49.0934449 L223.159926,46.9121339 L218.434682,46.9121339 L218.434682,46.181311 L223.88517,46.181311 L223.88517,44 L216.253371,44 L216.253371,52 L223.88517,52 Z M230.416086,52 L230.416086,46.181311 L233.13854,46.181311 L233.13854,44 L225.506741,44 L225.506741,46.181311 L228.234775,46.181311 L228.234775,52 L230.416086,52 Z M235.239888,52 L235.714086,50.9121339 L239.847978,50.9121339 L240.322176,52 L242.704324,52 L239.223152,44 L236.338912,44 L232.863319,52 L235.239888,52 Z M238.899582,48.7308229 L236.662483,48.7308229 L237.772664,46.181311 L237.794979,46.181311 L238.899582,48.7308229 Z"/>
  </g>
</svg>
