<svg xmlns="http://www.w3.org/2000/svg" width="1032" height="200" viewBox="0 0 1032 200">
  <g fill="none" fill-rule="evenodd">
    <path fill="#FFF" fill-rule="nonzero" d="M294.140625,137.621094 L294.140625,117.001953 L249.474609,117.001953 C247.576172,117.001953 245.958984,116.333984 244.623047,114.998047 C243.287109,113.662109 242.619141,112.044922 242.619141,110.146484 L242.619141,89.5273438 C242.619141,87.6289062 243.287109,86.0117188 244.623047,84.6757812 C245.958984,83.3046875 247.576172,82.6191406 249.474609,82.6191406 L294.140625,82.6191406 L294.140625,62 L246.046875,62 C239.402344,62 233.742188,64.3554688 229.066406,69.0664062 C224.355469,73.7773438 222,79.4550781 222,86.0996094 L222,113.574219 C222,120.21875 224.355469,125.878906 229.066406,130.554688 C233.742188,135.265625 239.402344,137.621094 246.046875,137.621094 L294.140625,137.621094 Z M353.0625,137.621094 C359.707031,137.621094 365.384766,135.265625 370.095703,130.554688 C374.771484,125.878906 377.109375,120.21875 377.109375,113.574219 L377.109375,86.0996094 C377.109375,79.4550781 374.771484,73.7773438 370.095703,69.0664062 C365.384766,64.3554688 359.707031,62 353.0625,62 L329.015625,62 C322.371094,62 316.710938,64.3554688 312.035156,69.0664062 C307.324219,73.7773438 304.96875,79.4550781 304.96875,86.0996094 L304.96875,113.574219 C304.96875,120.21875 307.324219,125.878906 312.035156,130.554688 C316.710938,135.265625 322.371094,137.621094 329.015625,137.621094 L353.0625,137.621094 Z M349.634766,117.001953 L332.443359,117.001953 C330.544922,117.001953 328.927734,116.333984 327.591797,114.998047 C326.255859,113.662109 325.587891,112.044922 325.587891,110.146484 L325.587891,89.5273438 C325.587891,87.6289062 326.255859,86.0117188 327.591797,84.6757812 C328.927734,83.3046875 330.544922,82.6191406 332.443359,82.6191406 L349.634766,82.6191406 C351.533203,82.6191406 353.150391,83.3046875 354.486328,84.6757812 C355.822266,86.0117188 356.490234,87.6289062 356.490234,89.5273438 L356.490234,110.146484 C356.490234,112.044922 355.822266,113.662109 354.486328,114.998047 C353.150391,116.333984 351.533203,117.001953 349.634766,117.001953 Z M408.556641,137.621094 L408.556641,62 L387.9375,62 L387.9375,137.621094 L408.556641,137.621094 Z M440.003906,137.621094 L440.003906,97.1210938 L472.910156,137.621094 L491.525391,137.621094 L491.525391,62 L470.90625,62 L470.90625,102.5 L438.052734,62 L419.384766,62 L419.384766,137.621094 L440.003906,137.621094 Z M522.972656,137.621094 L522.972656,113.574219 L533.097656,113.574219 L549.550781,137.621094 L574.494141,137.621094 L557.355469,112.572266 C562.382812,111.060547 566.478516,108.212891 569.642578,104.029297 C572.876953,99.7402344 574.494141,94.90625 574.494141,89.5273438 L574.494141,86.0996094 C574.494141,79.4550781 572.15625,73.7773438 567.480469,69.0664062 C562.769531,64.3554688 557.091797,62 550.447266,62 L502.353516,62 L502.353516,137.621094 L522.972656,137.621094 Z M548.759766,92.9550781 L522.972656,92.9550781 L522.972656,82.6191406 L548.759766,82.6191406 C550.166016,82.6191406 551.378906,83.1289062 552.398438,84.1484375 C553.382812,85.1679688 553.875,86.3808594 553.875,87.7871094 C553.875,89.2285156 553.382812,90.4414062 552.398438,91.4257812 C551.378906,92.4453125 550.166016,92.9550781 548.759766,92.9550781 Z M633.416016,137.621094 C640.060547,137.621094 645.738281,135.265625 650.449219,130.554688 C655.125,125.878906 657.462891,120.21875 657.462891,113.574219 L657.462891,86.0996094 C657.462891,79.4550781 655.125,73.7773438 650.449219,69.0664062 C645.738281,64.3554688 640.060547,62 633.416016,62 L609.369141,62 C602.724609,62 597.064453,64.3554688 592.388672,69.0664062 C587.677734,73.7773438 585.322266,79.4550781 585.322266,86.0996094 L585.322266,113.574219 C585.322266,120.21875 587.677734,125.878906 592.388672,130.554688 C597.064453,135.265625 602.724609,137.621094 609.369141,137.621094 L633.416016,137.621094 Z M629.988281,117.001953 L612.796875,117.001953 C610.898438,117.001953 609.28125,116.333984 607.945312,114.998047 C606.609375,113.662109 605.941406,112.044922 605.941406,110.146484 L605.941406,89.5273438 C605.941406,87.6289062 606.609375,86.0117188 607.945312,84.6757812 C609.28125,83.3046875 610.898438,82.6191406 612.796875,82.6191406 L629.988281,82.6191406 C631.886719,82.6191406 633.503906,83.3046875 634.839844,84.6757812 C636.175781,86.0117188 636.84375,87.6289062 636.84375,89.5273438 L636.84375,110.146484 C636.84375,112.044922 636.175781,113.662109 634.839844,114.998047 C633.503906,116.333984 631.886719,117.001953 629.988281,117.001953 Z M740.431641,137.621094 L740.431641,117.001953 L695.765625,117.001953 C693.867188,117.001953 692.25,116.333984 690.914062,114.998047 C689.578125,113.662109 688.910156,112.044922 688.910156,110.146484 L688.910156,89.5273438 C688.910156,87.6289062 689.578125,86.0117188 690.914062,84.6757812 C692.25,83.3046875 693.867188,82.6191406 695.765625,82.6191406 L740.431641,82.6191406 L740.431641,62 L692.337891,62 C685.693359,62 680.033203,64.3554688 675.357422,69.0664062 C670.646484,73.7773438 668.291016,79.4550781 668.291016,86.0996094 L668.291016,113.574219 C668.291016,120.21875 670.646484,125.878906 675.357422,130.554688 C680.033203,135.265625 685.693359,137.621094 692.337891,137.621094 L740.431641,137.621094 Z M771.878906,137.621094 L771.878906,111.675781 L780.263672,104.925781 L802.623047,137.621094 L827.566406,137.621094 L796.400391,92.0058594 L833.894531,62 L800.882812,62 L771.878906,85.2558594 L771.878906,62 L751.259766,62 L751.259766,137.621094 L771.878906,137.621094 Z M916.863281,137.621094 L916.863281,117.001953 L865.341797,117.001953 L865.341797,110.146484 L910.007812,110.146484 L910.007812,89.5273438 L865.341797,89.5273438 L865.341797,82.6191406 L916.863281,82.6191406 L916.863281,62 L844.722656,62 L844.722656,137.621094 L916.863281,137.621094 Z M974.097656,137.621094 L974.097656,82.6191406 L999.832031,82.6191406 L999.832031,62 L927.691406,62 L927.691406,82.6191406 L953.478516,82.6191406 L953.478516,137.621094 L974.097656,137.621094 Z"/>
    <path fill="#FFF" fill-rule="nonzero" d="M87.4082486 3.50090917C96.6677095.328507981 106.698213-.71572893 116.418592.482229734 117.497229.615161251 118.346988 1.46189091 118.480395 2.53699817 119.682323 12.2205236 118.634982 22.2165326 115.451549 31.4429879 112.267483 40.6703881 106.924562 49.1947004 100.000357 56.0942241L100.000357 56.0942241 84.1992083 71.8393636 81.2572983 94.5668729C81.1902787 95.0847388 80.9528647 95.5660643 80.5823598 95.9352485L80.5823598 95.9352485 58.5913772 117.847843C58.1396267 118.297669 57.5339208 118.539906 56.9143051 118.539906 56.6791041 118.539906 56.4423223 118.505256 56.211231 118.43375 55.370324 118.173557 54.7437534 117.470469 54.5831592 116.607674L54.5831592 116.607674 51.5034163 100.03943 48.2362081 96.7838682 44.4691976 103.714892C44.1129186 104.37073 43.4664318 104.820555 42.7257381 104.927971 42.6119312 104.944351 42.497492 104.952541 42.3843173 104.952541 41.7599596 104.952541 41.1555182 104.706839 40.7075613 104.260478L40.7075613 104.260478 14.3302687 77.9772087C13.8010663 77.4498926 13.5529039 76.7045941 13.6607044 75.9665407 13.7685048 75.2284873 14.2199391 74.584305 14.8781227 74.2292959L14.8781227 74.2292959 21.8339411 70.4760281 18.5667328 67.220466 1.93921944 64.151701C1.07365426 63.9919941.367734958 63.367342.106927335 62.5294325-.154512549 61.6915229.0718368547 60.7783275.694297715 60.1580854L.694297715 60.1580854 22.6852804 38.2454905C23.0561014 37.8763063 23.5388326 37.6397386 24.0588672 37.5729578L24.0588672 37.5729578 46.8673632 34.6418494 62.6685116 18.8970248C69.5927169 11.9975011 78.1478392 6.67362535 87.4082486 3.50090917zM63.7082647 34.7899011C58.1001104 40.3783798 58.1001104 49.4709585 63.7082647 55.0594372 66.5126579 57.8538341 70.1955777 59.2505601 73.8794458 59.2505601 77.4350631 59.2505601 80.9924487 57.9479119 83.7571611 55.3434663L84.050627 55.0594372C89.6587812 49.4712735 89.6587812 40.3783798 84.0503109 34.7899011 78.4418405 29.2017373 69.3164189 29.2020523 63.7082647 34.7899011zM24.8368642 94.2380091C23.910602 93.3153636 22.4096146 93.3153636 21.4836685 94.2380091L1.14130618 114.507545C.21536008 115.430191.21536008 116.926143 1.14130618 117.848473 1.60443729 118.309639 2.21140776 118.540536 2.81806209 118.540536 3.42471643 118.540536 4.0316869 118.309954 4.49481801 117.848473L24.8368642 97.5789372C25.7624942 96.6566067 25.7624942 95.1606546 24.8368642 94.2380091zM27.9659235 100.697473L18.8009855 109.829742C17.8750394 110.752387 17.8750394 112.24834 18.8009855 113.17067 19.2641166 113.631835 19.8710871 113.862733 20.4777414 113.862733 21.0843958 113.862733 21.6913662 113.63215 22.1544973 113.17067L31.3194353 104.038401C32.2453814 103.115755 32.2453814 101.619803 31.3194353 100.697473 30.3931731 99.7748273 28.8921857 99.7748273 27.9659235 100.697473zM18.4268688 87.6654975C17.5006065 86.742852 15.9996192 86.742852 15.0736731 87.6654975L5.90873512 96.7977666C4.98278902 97.7204122 4.98278902 99.2163642 5.90873512 100.138695 6.37186623 100.59986 6.9788367 100.830758 7.58549104 100.830758 8.19214538 100.830758 8.79911584 100.600175 9.26224696 100.138695L18.4271849 91.0064256C19.3528149 90.0840951 19.3528149 88.588143 18.4268688 87.6654975z" transform="translate(43.536 37.5)"/>
  </g>
</svg>
